# xmcd
#
# Track frame offsets:
#	150
#	14718
#	33137
#	51138
#	69165
#	85156
#	106446
#	122159
#	139453
#	155513
#	173145
#	195070
#	222924
#
# Disc length: 3994 seconds
#
# Revision: 2
# Processed by: cddbd v1.5.2PL0 Copyright (c) Steve Scherf et al.
# Submitted via: EasyCDDAExtractor 15.3.0.1
#
DISCID=ad0f980d
DTITLE=Axel - Amo
DYEAR=2003
DGENRE=Latin
TTITLE0=Sigue
TTITLE1=A Mi Medida
TTITLE2=Me Estoy Enamorando
TTITLE3=Quiero Que Te Enteres
TTITLE4=Amo
TTITLE5=Dulce Amargo
TTITLE6=El Amor Comienza
TTITLE7=Eso
TTITLE8=Nena
TTITLE9=Me Puedes De Punta A Punta
TTITLE10=Meme
TTITLE11=Tu Rinconcito
TTITLE12=A Mi Medida (Video)
EXTD=
EXTT0=
EXTT1=
EXTT2=
EXTT3=
EXTT4=
EXTT5=
EXTT6=
EXTT7=
EXTT8=
EXTT9=
EXTT10=
EXTT11=
EXTT12=
PLAYORDER=
